<?xml version="1.0" encoding="UTF-8" standalone="no"?>
<!-- Generator: Adobe Illustrator 22.0.1, SVG Export Plug-In . SVG Version: 6.00 Build 0)  -->

<svg
   xmlns:dc="http://purl.org/dc/elements/1.1/"
   xmlns:cc="http://creativecommons.org/ns#"
   xmlns:rdf="http://www.w3.org/1999/02/22-rdf-syntax-ns#"
   xmlns:svg="http://www.w3.org/2000/svg"
   xmlns="http://www.w3.org/2000/svg"
   xmlns:sodipodi="http://sodipodi.sourceforge.net/DTD/sodipodi-0.dtd"
   xmlns:inkscape="http://www.inkscape.org/namespaces/inkscape"
   version="1.0"
   id="Layer_1"
   x="0px"
   y="0px"
   width="179.50877"
   height="50.666668"
   viewBox="0 0 179.50876 50.66667"
   xml:space="preserve"
   sodipodi:docname="logo.svg"
   inkscape:version="0.92.2 (5c3e80d, 2017-08-06)"><metadata
     id="metadata3770"><rdf:RDF><cc:Work
         rdf:about=""><dc:format>image/svg+xml</dc:format><dc:type
           rdf:resource="http://purl.org/dc/dcmitype/StillImage" /></cc:Work></rdf:RDF></metadata><defs
     id="defs3768" /><sodipodi:namedview
     pagecolor="#ffffff"
     bordercolor="#666666"
     borderopacity="1"
     objecttolerance="10"
     gridtolerance="10"
     guidetolerance="10"
     inkscape:pageopacity="0"
     inkscape:pageshadow="2"
     inkscape:window-width="1920"
     inkscape:window-height="1001"
     id="namedview3766"
     showgrid="false"
     inkscape:zoom="3.7483846"
     inkscape:cx="197.51609"
     inkscape:cy="39.291027"
     inkscape:window-x="-9"
     inkscape:window-y="-9"
     inkscape:window-maximized="1"
     inkscape:current-layer="Layer_1"
     showguides="true"
     inkscape:guide-bbox="true"
     inkscape:snap-bbox="false"
     inkscape:bbox-paths="true"
     inkscape:snap-page="false"><inkscape:grid
       type="xygrid"
       id="grid29"
       originx="-17.07402"
       originy="4.0017245" /></sodipodi:namedview><style
     type="text/css"
     id="style3713">
	.st0{fill:#939393;}
</style><g
     id="g3800"
     transform="matrix(0.64263382,0,0,0.64263382,7.5615214,2.1342527)"><polygon
       style="fill:#999999"
       id="polygon3715"
       points="10.8,14.4 2,3.4 2,23.5 1.8,23.7 0.2,23.7 0,23.4 0,0.7 0.2,0.5 1.7,0.5 2,0.7 10.9,11.7 19.7,0.7 20,0.5 21.5,0.5 21.7,0.7 21.7,23.5 21.5,23.7 20,23.7 19.8,23.5 19.8,3.4 11.1,14.4 "
       class="st0" /><path
       style="fill:#999999"
       id="polygon3717"
       d="M 34.599609,0.5 34.400391,0.69921875 25.199219,23.5 l 0.201172,0.199219 h 1.798828 L 27.400391,23.5 30.099609,16.800781 H 41 L 43.800781,23.5 44,23.699219 h 1.699219 L 45.900391,23.5 36.699219,0.69921875 36.5,0.5 Z m 1,2.5 4.59961,11.800781 h -9.298828 z"
       inkscape:connector-curvature="0" /><path
       style="fill:#999999"
       id="path3721"
       d="M 49.599609,0.5 49.400391,0.69921875 V 23.400391 l 0.199218,0.199218 h 1.59961 l 0.201172,-0.199218 V 13 h 4 l 7.699218,10.5 0.201172,0.199219 H 65.5 L 65.699219,23.5 l -8,-10.800781 c 2.7,-0.8 4.90039,-2.7984378 4.90039,-5.8984378 C 62.599609,3.0007813 59.800391,0.5 55.400391,0.5 Z m 1.800782,1.9003906 h 4 c 3.1,0 5,1.6003907 5,4.4003906 0,3 -2.600391,4.2988278 -5.400391,4.2988278 h -3.599609 z"
       inkscape:connector-curvature="0" /><path
       style="fill:#999999"
       id="path3725"
       d="M 86.7,4.8 C 84.4,3 81.7,2 78.9,2 c -5.5,0 -10,4.5 -10,10 0,5.5 4.5,10 10,10 2.8,0 5.5,-1 7.8,-2.8 l 0.2,0.2 v 2.2 c -2.1,1.6 -4.8,2.5 -7.9,2.5 -6.8,0 -12.2,-5.4 -12.2,-12 C 66.8,5.5 72.1,0 78.9,0 82,0 84.7,0.9 86.8,2.5 v 2.2 z"
       class="st0"
       inkscape:connector-curvature="0" /><path
       style="fill:#999999"
       id="path3727"
       d="m 93.9,0.5 0.2,0.2 V 13 c 0,5.8 3.1,9 7.6,9 4.5,0 7.6,-3.2 7.6,-9 V 0.7 l 0.2,-0.2 h 1.6 l 0.2,0.2 v 12.7 c 0,6.8 -3.9,10.7 -9.5,10.7 -5.6,0 -9.6,-4 -9.6,-10.7 V 0.7 l 0.2,-0.2 z"
       class="st0"
       inkscape:connector-curvature="0" /><path
       style="fill:#999999"
       id="path3729"
       d="M 126.4,4.4 C 125.3,2.9 124.2,2 122.3,2 c -2,0 -3.6,1.6 -3.6,3.6 0,4.4 11,4.3 11,11.4 0,3.9 -3.2,7.1 -7.1,7.1 -3.3,0 -5.8,-1.8 -6.9,-4.8 l 1.4,-1 h 0.3 c 1,2.5 2.9,3.8 5.2,3.8 2.8,0 4.9,-2.2 4.9,-5.1 0,-5.3 -11,-5.1 -11,-11.4 0,-3.1 2.5,-5.6 5.7,-5.6 2.6,0 4.6,1.5 5.8,3.5 l -1.4,1 z"
       class="st0"
       inkscape:connector-curvature="0" /><polygon
       style="fill:#999999"
       id="polygon3731"
       points="139.4,0.5 157.6,0.5 157.8,0.7 157.8,2.3 157.6,2.5 149.5,2.5 149.5,23.5 149.3,23.7 147.7,23.7 147.5,23.5 147.5,2.5 139.4,2.5 139.2,2.3 139.2,0.7 "
       class="st0" /><path
       style="fill:#999999"
       id="polygon3733"
       d="M 164.69922,0.5 164.5,0.69921875 155.30078,23.5 155.5,23.699219 h 1.80078 L 157.5,23.5 l 2.69922,-6.699219 h 10.90039 L 173.80078,23.5 174,23.699219 h 1.69922 L 175.90039,23.5 166.69922,0.69921875 166.5,0.5 Z m 1,2.5 4.60156,11.800781 H 161 Z"
       inkscape:connector-curvature="0" /><polygon
       style="fill:#999999"
       id="polygon3737"
       points="173.2,0.6 173.4,0.4 175.4,0.4 175.4,0.5 175.7,0.7 182.8,9.7 189.9,0.7 190.2,0.5 192.2,0.5 192.4,0.7 183.8,11.6 183.8,23.5 183.6,23.7 182,23.7 181.8,23.5 181.8,11.5 "
       class="st0" /><polygon
       style="fill:#999999"
       id="polygon3739"
       points="197.9,21.7 208.7,21.7 208.8,21.9 208.8,23.5 208.7,23.6 196.1,23.6 196,23.5 196,0.6 196.1,0.5 197.8,0.5 197.9,0.6 "
       class="st0" /><path
       style="fill:#999999"
       id="ellipse3741"
       d="M 222.30078,0 A 12.2,12 0 0 0 210.09961,12 12.2,12 0 0 0 222.30078,24 12.2,12 0 0 0 234.5,12 12.2,12 0 0 0 222.30078,0 Z m 0,2 a 10,10 0 0 1 10,10 10,10 0 0 1 -10,10 10,10 0 0 1 -10,-10 10,10 0 0 1 10,-10 z"
       inkscape:connector-curvature="0" /><path
       style="fill:#999999"
       id="path3745"
       d="m 239.59961,0.5 -0.19922,0.19921875 V 23.400391 l 0.19922,0.199218 h 1.59961 l 0.20117,-0.199218 V 13 h 4 l 7.69922,10.5 0.20117,0.199219 H 255.5 L 255.69922,23.5 l -8,-10.800781 c 2.7,-0.8 4.90039,-2.7984378 4.90039,-5.8984378 C 252.59961,3.0007813 249.80039,0.5 245.40039,0.5 Z M 241.5,2.4003906 h 4 c 3.1,0 5,1.6003907 5,4.4003906 0,3 -2.60039,4.2988278 -5.40039,4.2988278 H 241.5 Z"
       inkscape:connector-curvature="0" /><polygon
       style="fill:#999999"
       id="polygon3749"
       points="4.8,50.8 4.8,71.9 4.5,72.2 0.3,72.2 0,71.9 0,29.2 0.3,28.9 4.5,28.9 4.8,29.2 4.8,46 29.7,46 29.7,29.2 30,28.9 34.1,28.9 34.4,29.2 34.4,71.9 34.1,72.2 30,72.2 29.7,71.9 29.7,50.8 "
       class="st0" /><path
       style="fill:#999999"
       id="polygon3751"
       d="M 58.199219,28.900391 57.900391,29.199219 40.699219,71.900391 41,72.199219 h 4.599609 L 45.900391,71.900391 50.5,60.599609 h 19.800781 l 4.59961,11.300782 0.298828,0.298828 h 4.601562 L 80.099609,71.900391 62.900391,29.199219 62.599609,28.900391 Z M 60.400391,35.5 l 8,20.300781 h -16 z"
       inkscape:connector-curvature="0" /><polygon
       style="fill:#999999"
       id="polygon3755"
       points="91.2,29.1 91.2,67.4 111.4,67.4 111.6,67.7 111.6,71.9 111.4,72.1 86.7,72.1 86.5,71.9 86.5,29.2 86.7,29 91,29 91,28.9 "
       class="st0" /><polygon
       style="fill:#999999"
       id="polygon3757"
       points="123.9,29.1 123.9,67.4 144.1,67.4 144.3,67.7 144.3,71.9 144.1,72.1 119.4,72.1 119.2,71.9 119.2,29.2 119.4,29 123.7,29 123.7,28.9 "
       class="st0" /><polygon
       style="fill:#999999"
       id="polygon3759"
       points="178.8,67.7 178.8,71.8 178.5,72.1 152.1,72.1 151.8,71.8 151.8,29.2 152.1,28.9 176.7,28.9 177,29.2 177,33.3 176.7,33.6 156.6,33.6 156.6,46 171.7,46 172,46.3 172,50.5 171.7,50.8 156.6,50.8 156.6,67.4 178.5,67.4 "
       class="st0" /><polygon
       style="fill:#999999"
       id="polygon3761"
       points="183.2,29 217.2,29 217.2,28.9 217.5,29.2 217.5,33.3 217.2,33.6 202.6,33.6 202.6,71.8 202.3,72.1 198.1,72.1 197.8,71.8 197.8,33.7 183.2,33.7 182.9,33.4 182.9,29.3 "
       class="st0" /><polygon
       style="fill:#999999"
       id="polygon3763"
       points="221.5,29 255.5,29 255.5,28.9 255.8,29.2 255.8,33.3 255.5,33.6 240.9,33.6 240.9,71.8 240.6,72.1 236.4,72.1 236.1,71.8 236.1,33.7 221.5,33.7 221.2,33.4 221.2,29.3 "
       class="st0" /></g></svg>