<?xml version="1.0" encoding="utf-8"?>
<!-- Generator: Adobe Illustrator 22.0.1, SVG Export Plug-In . SVG Version: 6.00 Build 0)  -->
<svg version="1.1" id="Layer_1" xmlns="http://www.w3.org/2000/svg" xmlns:xlink="http://www.w3.org/1999/xlink" x="0px" y="0px"
	 viewBox="0 0 72 66.9" style="enable-background:new 0 0 72 66.9;" xml:space="preserve">
<g>
	<path d="M72,5.1v61.7H0V5.1h10.3V0h5.1v5.1h41.1V0h5.1v5.1H72z M66.9,20.6V10.3h-5.1v5.1h-5.1v-5.1H15.4v5.1h-5.1v-5.1H5.1v10.3
		H66.9z M66.9,25.7H5.1v36h61.7V25.7z M26.8,56.6c3.1,0,5.5-0.7,7.2-2c1.7-1.3,2.6-3.2,2.6-5.5c0-1.5-0.5-2.8-1.5-3.9
		c-1-1.1-2.4-1.7-4.3-1.9v-0.2c3.3-0.7,5-2.8,5-6.1c0-1.8-0.7-3.3-2.2-4.4c-1.4-1.1-3.4-1.7-5.9-1.7c-2.5,0-4.6,0.4-6.3,1.3v4.5
		c1.6-1.1,3.2-1.6,4.8-1.6c2.6,0,3.9,1,3.9,3.1s-1.7,3.1-5,3.1h-2.1v4.2h2.3c1.7,0,3.1,0.3,4.1,0.9c1,0.6,1.5,1.4,1.5,2.6
		s-0.4,2-1.2,2.6c-0.8,0.6-1.9,0.9-3.3,0.9c-2.3,0-4.2-0.6-5.9-1.8v4.7C22.2,56.1,24.3,56.6,26.8,56.6z M48.2,30.9
		c-1,0.8-2,1.5-3.2,2.2c-1.2,0.7-2.5,1.2-3.9,1.5v4.7c0.4,0,0.9-0.1,1.4-0.2l1.3-0.5l1.3-0.6c0.5-0.3,0.9-0.6,1.1-0.8v19.4h5.1V30.9
		H48.2z"/>
</g>
</svg>
