<?xml version="1.0" encoding="utf-8"?>
<!-- Generator: Adobe Illustrator 22.0.1, SVG Export Plug-In . SVG Version: 6.00 Build 0)  -->
<svg version="1.1" id="Layer_1" xmlns="http://www.w3.org/2000/svg" xmlns:xlink="http://www.w3.org/1999/xlink" x="0px" y="0px"
	 viewBox="0 0 72 72" style="enable-background:new 0 0 72 72;" xml:space="preserve">
<g>
	<path d="M36,72c-6.3,0-12.2-1.7-17.8-5C12.7,63.7,8.3,59.3,5,53.7C1.7,48.8,0,42.9,0,36c0-6.3,1.7-12.2,5-17.8
		C8.3,12.7,12.7,8.3,18.3,5C23.2,1.7,29.1,0,36,0c6.3,0,12.2,1.7,17.8,5c5.5,3.3,9.9,7.7,13.3,13.3c3.3,5.5,5,11.4,5,17.8
		c0,6.3-1.7,12.2-5,17.8c-3.3,5.5-7.8,9.9-13.3,13.3C48.7,70.3,42.9,72,36,72z M36,5.5c-5.7,0-10.8,1.3-15.4,4
		C16,12.3,12.3,16,9.5,20.6c-2.7,4.6-4,9.8-4,15.4c0,5.7,1.3,10.8,4,15.4c2.8,4.6,6.5,8.3,11.1,11.1c4.1,2.7,9.2,4,15.4,4
		c5.7,0,10.8-1.3,15.4-4c4.3-2.4,8-6.1,11.1-11.1c2.7-4.6,4-9.7,4-15.4c0-5.7-1.3-10.8-4-15.4C59.7,16,56,12.3,51.4,9.5
		C46.8,6.8,41.7,5.5,36,5.5z M55.4,38.7H38.7V16.6h-5.5v27.8h22.2V38.7z"/>
</g>
</svg>
