<?xml version="1.0" encoding="utf-8"?>
<!-- Generator: Adobe Illustrator 22.0.1, SVG Export Plug-In . SVG Version: 6.00 Build 0)  -->
<svg version="1.1" id="Layer_1" xmlns="http://www.w3.org/2000/svg" xmlns:xlink="http://www.w3.org/1999/xlink" x="0px" y="0px"
	 viewBox="0 0 2225.5 667" style="enable-background:new 0 0 2225.5 667;" xml:space="preserve">
<style type="text/css">
	.st0{fill:#FFFFFF;stroke:#000000;stroke-width:33;stroke-miterlimit:10;}
	.st1{fill:none;stroke:#000000;stroke-width:33;}
</style>
<path class="st0" d="M2197,461.5H28.5c-6.6,0-12,5.4-12,12v165c0,6.6,5.4,12,12,12H2197c6.6,0,12-5.4,12-12v-165
	C2209,466.9,2203.6,461.5,2197,461.5z"/>
<path class="st0" d="M2197,592.5H28.5c-6.6,0-12-5.4-12-12v-552c0-6.6,5.4-12,12-12H2197c6.6,0,12,5.4,12,12v552
	C2209,587.1,2203.6,592.5,2197,592.5z"/>
<g>
	<path d="M361,478H182.9V141.9h170.6v35.6H222.3v111.8h121.4v35.4H222.3v117.7H361V478z"/>
	<path d="M696.7,478h-48.3l-173-267.9c-4.4-6.7-8-13.7-10.8-21.1h-1.4c1.2,7.2,1.9,22.6,1.9,46.2V478h-39.4V141.9h51.1l168.3,263.7
		c7,10.9,11.6,18.4,13.6,22.5h0.9c-1.6-9.7-2.3-26.2-2.3-49.5V141.9h39.4V478z"/>
	<path d="M983.5,177.5h-97V478h-39.4V177.5h-96.8v-35.6h233.2V177.5z"/>
	<path d="M1214.4,478h-178.1V141.9h170.6v35.6h-131.3v111.8H1197v35.4h-121.4v117.7h138.8V478z"/>
	<path d="M1520,478h-46.9l-56.3-94.2c-5.2-8.7-10.2-16.2-15-22.4c-4.8-6.2-9.8-11.2-14.9-15.1c-5.1-3.9-10.5-6.8-16.4-8.6
		c-5.9-1.8-12.5-2.7-19.8-2.7h-32.3v143h-39.4V141.9h100.3c14.7,0,28.2,1.8,40.7,5.5c12.4,3.7,23.2,9.3,32.3,16.8s16.3,16.8,21.4,28
		c5.2,11.2,7.7,24.3,7.7,39.3c0,11.7-1.8,22.5-5.3,32.2c-3.5,9.8-8.5,18.5-15,26.1c-6.5,7.7-14.3,14.2-23.4,19.6
		s-19.4,9.6-30.8,12.5v0.9c5.6,2.5,10.5,5.4,14.6,8.6c4.1,3.2,8.1,7,11.8,11.4c3.8,4.4,7.5,9.3,11.1,14.9c3.7,5.5,7.8,12,12.3,19.3
		L1520,478z M1318.4,177.5v121.9h53.4c9.8,0,18.9-1.5,27.3-4.5c8.4-3,15.6-7.2,21.7-12.8c6.1-5.5,10.9-12.3,14.3-20.4
		c3.4-8,5.2-17.1,5.2-27.1c0-18-5.8-32-17.5-42.1c-11.6-10.1-28.5-15.1-50.5-15.1H1318.4z"/>
</g>
<path class="st1" d="M2080,141.9v249.8h-421.4 M1736.5,478l-84.6-86.3l84.6-86.3"/>
</svg>
