<?xml version="1.0" encoding="utf-8"?>
<!-- Generator: Adobe Illustrator 22.0.1, SVG Export Plug-In . SVG Version: 6.00 Build 0)  -->
<svg version="1.1" id="Layer_1" xmlns="http://www.w3.org/2000/svg" xmlns:xlink="http://www.w3.org/1999/xlink" x="0px" y="0px"
	 viewBox="0 0 255.8 72.2" style="enable-background:new 0 0 255.8 72.2;" xml:space="preserve">
<style type="text/css">
	.st0{fill:#231F20;}
</style>
<path id="XMLID_427_" class="st0" d="M1.7,0.5L2,0.7l8.9,11l8.8-11l0.3-0.2h1.5l0.2,0.2v22.8l-0.2,0.2H20l-0.2-0.2V3.4l-8.7,11h-0.3
	l-8.8-11v20.1l-0.2,0.2H0.2L0,23.4V0.7l0.2-0.2H1.7z M36.5,0.5l0.2,0.2l9.2,22.8l-0.2,0.2h-1.7l-0.2-0.2L41,16.8H30.1l-2.7,6.7
	l-0.2,0.2h-1.8l-0.2-0.2l9.2-22.8l0.2-0.2H36.5z M30.9,14.8h9.3L35.6,3L30.9,14.8z M55.4,0.5c4.4,0,7.2,2.5,7.2,6.3
	c0,3.1-2.2,5.1-4.9,5.9l8,10.8l-0.2,0.2h-2.2l-0.2-0.2L55.4,13h-4v10.4l-0.2,0.2h-1.6l-0.2-0.2V0.7l0.2-0.2H55.4z M51.4,11.1H55
	c2.8,0,5.4-1.3,5.4-4.3c0-2.8-1.9-4.4-5-4.4h-4V11.1z M86.7,4.8C84.4,3,81.7,2,78.9,2c-5.5,0-10,4.5-10,10s4.5,10,10,10
	c2.8,0,5.5-1,7.8-2.8l0.2,0.2v2.2c-2.1,1.6-4.8,2.5-7.9,2.5c-6.8,0-12.2-5.4-12.2-12S72.1,0,78.9,0c3.1,0,5.8,0.9,7.9,2.5v2.2
	L86.7,4.8z M93.9,0.5l0.2,0.2V13c0,5.8,3.1,9,7.6,9c4.5,0,7.6-3.2,7.6-9V0.7l0.2-0.2h1.6l0.2,0.2v12.7c0,6.8-3.9,10.7-9.5,10.7
	c-5.6,0-9.6-4-9.6-10.7V0.7l0.2-0.2H93.9z M126.4,4.4c-1.1-1.5-2.2-2.4-4.1-2.4c-2,0-3.6,1.6-3.6,3.6c0,4.4,11,4.3,11,11.4
	c0,3.9-3.2,7.1-7.1,7.1c-3.3,0-5.8-1.8-6.9-4.8l1.4-1h0.3c1,2.5,2.9,3.8,5.2,3.8c2.8,0,4.9-2.2,4.9-5.1c0-5.3-11-5.1-11-11.4
	c0-3.1,2.5-5.6,5.7-5.6c2.6,0,4.6,1.5,5.8,3.5l-1.4,1H126.4z M157.6,0.5l0.2,0.2v1.6l-0.2,0.2h-8.1v21l-0.2,0.2h-1.6l-0.2-0.2v-21
	h-8.1l-0.2-0.2V0.7l0.2-0.2H157.6z M166.5,0.5l0.2,0.2l9.2,22.8l-0.2,0.2H174l-0.2-0.2l-2.7-6.7h-10.9l-2.7,6.7l-0.2,0.2h-1.8
	l-0.2-0.2l9.2-22.8l0.2-0.2H166.5z M161,14.8h9.3L165.7,3L161,14.8z M175.4,0.5l0.3,0.2l7.1,9l7.1-9l0.3-0.2h2l0.2,0.2l-8.6,10.9
	v11.9l-0.2,0.2H182l-0.2-0.2V11.5l-8.6-10.9l0.2-0.2H175.4z M197.8,0.5l0.1,0.1v21.1h10.8l0.1,0.2v1.6l-0.1,0.1h-12.6l-0.1-0.1V0.6
	l0.1-0.1H197.8z M234.5,12c0,6.6-5.5,12-12.2,12c-6.7,0-12.2-5.4-12.2-12s5.5-12,12.2-12C229.1,0,234.5,5.4,234.5,12z M212.3,12
	c0,5.5,4.5,10,10,10c5.5,0,10-4.5,10-10s-4.5-10-10-10C216.8,2,212.3,6.5,212.3,12z M245.4,0.5c4.4,0,7.2,2.5,7.2,6.3
	c0,3.1-2.2,5.1-4.9,5.9l8,10.8l-0.2,0.2h-2.2l-0.2-0.2L245.4,13h-4v10.4l-0.2,0.2h-1.6l-0.2-0.2V0.7l0.2-0.2H245.4z M241.5,11.1h3.6
	c2.8,0,5.4-1.3,5.4-4.3c0-2.8-1.9-4.4-5-4.4h-4V11.1z M4.5,28.9l0.3,0.3V46h24.9V29.2l0.3-0.3h4.1l0.3,0.3v42.7l-0.3,0.3H30
	l-0.3-0.3V50.8H4.8v21.1l-0.3,0.3H0.3L0,71.9V29.2l0.3-0.3H4.5z M62.6,28.9l0.3,0.3l17.2,42.7l-0.3,0.3h-4.6l-0.3-0.3l-4.6-11.3
	H50.5l-4.6,11.3l-0.3,0.3h-4.6l-0.3-0.3l17.2-42.7l0.3-0.3H62.6z M52.4,55.8h16l-8-20.3L52.4,55.8z M91,28.9l0.2,0.2v38.3h20.2
	l0.2,0.3v4.2l-0.2,0.2H86.7l-0.2-0.2V29.2l0.2-0.2H91z M123.7,28.9l0.2,0.2v38.3h20.2l0.2,0.3v4.2l-0.2,0.2h-24.7l-0.2-0.2V29.2
	l0.2-0.2H123.7z M176.7,28.9l0.3,0.3v4.1l-0.3,0.3h-20.1V46h15.1l0.3,0.3v4.2l-0.3,0.3h-15.1v16.6h21.9l0.3,0.3v4.1l-0.3,0.3h-26.4
	l-0.3-0.3V29.2l0.3-0.3H176.7z M217.2,28.9l0.3,0.3v4.1l-0.3,0.3h-14.6v38.2l-0.3,0.3h-4.2l-0.3-0.3V33.7h-14.6l-0.3-0.3v-4.1
	l0.3-0.3H217.2z M255.5,28.9l0.3,0.3v4.1l-0.3,0.3h-14.6v38.2l-0.3,0.3h-4.2l-0.3-0.3V33.7h-14.6l-0.3-0.3v-4.1l0.3-0.3H255.5z"/>
</svg>
