<?xml version="1.0" encoding="utf-8"?>
<!-- Generator: Adobe Illustrator 22.0.1, SVG Export Plug-In . SVG Version: 6.00 Build 0)  -->
<svg version="1.1" id="Layer_1" xmlns="http://www.w3.org/2000/svg" xmlns:xlink="http://www.w3.org/1999/xlink" x="0px" y="0px"
	 viewBox="0 0 609 667" style="enable-background:new 0 0 609 667;" xml:space="preserve">
<style type="text/css">
	.st0{fill:#FFFFFF;stroke:#000000;stroke-width:33;stroke-miterlimit:10;}
</style>
<path class="st0" d="M580.5,650.5h-552c-6.6,0-12-5.4-12-12v-165c0-6.6,5.4-12,12-12h552c6.6,0,12,5.4,12,12v165
	C592.5,645.1,587.1,650.5,580.5,650.5z"/>
<path class="st0" d="M580.5,592.5h-552c-6.6,0-12-5.4-12-12v-552c0-6.6,5.4-12,12-12h552c6.6,0,12,5.4,12,12v552
	C592.5,587.1,587.1,592.5,580.5,592.5z"/>
<g>
	<path d="M424.5,478.5h-47L321.1,384c-5.2-8.8-10.2-16.3-15-22.4c-4.9-6.2-9.8-11.2-14.9-15.2c-5.1-3.9-10.6-6.8-16.5-8.6
		c-5.9-1.8-12.5-2.7-19.9-2.7h-32.4v143.4h-39.5V141.4h100.6c14.7,0,28.3,1.8,40.8,5.5c12.5,3.7,23.3,9.3,32.4,16.8
		c9.2,7.5,16.3,16.9,21.5,28.1c5.2,11.2,7.8,24.3,7.8,39.4c0,11.8-1.8,22.5-5.3,32.3c-3.5,9.8-8.5,18.5-15,26.2
		s-14.3,14.2-23.5,19.6s-19.5,9.6-30.9,12.6v0.9c5.6,2.5,10.5,5.4,14.7,8.6s8.1,7,11.9,11.4s7.5,9.4,11.2,14.9
		c3.7,5.6,7.8,12,12.3,19.4L424.5,478.5z M222.4,177.2v122.2H276c9.9,0,19-1.5,27.4-4.5s15.6-7.2,21.7-12.8
		c6.1-5.6,10.9-12.4,14.3-20.5c3.4-8.1,5.2-17.1,5.2-27.1c0-18-5.8-32.1-17.5-42.2s-28.6-15.2-50.7-15.2h-54V177.2z"/>
</g>
</svg>
