<?xml version="1.0" encoding="utf-8"?>
<!-- Generator: Adobe Illustrator 22.0.1, SVG Export Plug-In . SVG Version: 6.00 Build 0)  -->
<svg version="1.1" id="Layer_1" xmlns="http://www.w3.org/2000/svg" xmlns:xlink="http://www.w3.org/1999/xlink" x="0px" y="0px"
	 viewBox="0 0 609 667" style="enable-background:new 0 0 609 667;" xml:space="preserve">
<style type="text/css">
	.st0{fill:#FFFFFF;stroke:#000000;stroke-width:33;stroke-miterlimit:10;}
</style>
<path class="st0" d="M580.5,650.5h-552c-6.6,0-12-5.4-12-12v-165c0-6.6,5.4-12,12-12h552c6.6,0,12,5.4,12,12v165
	C592.5,645.1,587.1,650.5,580.5,650.5z"/>
<path class="st0" d="M580.5,592.5h-552c-6.6,0-12-5.4-12-12v-552c0-6.6,5.4-12,12-12h552c6.6,0,12,5.4,12,12v552
	C592.5,587.1,587.1,592.5,580.5,592.5z"/>
<path d="M71,136.7l191.1-25.9l0.1,183.7l-191,1.1L71,136.7z M262,315.6l0.1,183.9l-191-26.2V314.4L262,315.6z M285.1,107.4
	l253.3-36.9v221.6l-253.3,2L285.1,107.4z M538.5,317.4L538.4,538l-253.3-35.6L284.7,317L538.5,317.4z"/>
</svg>
