<?xml version="1.0" encoding="utf-8"?>
<!-- Generator: Adobe Illustrator 22.0.1, SVG Export Plug-In . SVG Version: 6.00 Build 0)  -->
<svg version="1.1" id="Layer_1" xmlns="http://www.w3.org/2000/svg" xmlns:xlink="http://www.w3.org/1999/xlink" x="0px" y="0px"
	 viewBox="0 0 1941 667" style="enable-background:new 0 0 1941 667;" xml:space="preserve">
<style type="text/css">
	.st0{fill:#FFFFFF;stroke:#000000;stroke-width:33;stroke-miterlimit:10;}
</style>
<g>
	<path class="st0" d="M580.5,650.5h-552c-6.6,0-12-5.4-12-12v-165c0-6.6,5.4-12,12-12h552c6.6,0,12,5.4,12,12v165
		C592.5,645.1,587.1,650.5,580.5,650.5z"/>
	<path class="st0" d="M580.5,592.5h-552c-6.6,0-12-5.4-12-12v-552c0-6.6,5.4-12,12-12h552c6.6,0,12,5.4,12,12v552
		C592.5,587.1,587.1,592.5,580.5,592.5z"/>
	<path d="M71,136.7l191.1-25.9l0.1,183.7l-191,1.1L71,136.7z M262,315.6l0.1,183.9l-191-26.2V314.4L262,315.6z M285.1,107.4
		l253.3-36.9v221.6l-253.3,2L285.1,107.4z M538.5,317.4L538.4,538l-253.3-35.6L284.7,317L538.5,317.4z"/>
</g>
<g>
	<path class="st0" d="M1914,649h-552c-6.6,0-12-5.4-12-12V472c0-6.6,5.4-12,12-12h552c6.6,0,12,5.4,12,12v165
		C1926,643.6,1920.6,649,1914,649z"/>
	<path class="st0" d="M1914,591h-552c-6.6,0-12-5.4-12-12V27c0-6.6,5.4-12,12-12h552c6.6,0,12,5.4,12,12v552
		C1926,585.6,1920.6,591,1914,591z"/>
	<g>
		<path d="M1758,477h-47l-56.4-94.5c-5.2-8.8-10.2-16.3-15-22.4c-4.9-6.2-9.8-11.2-14.9-15.2c-5.1-3.9-10.6-6.8-16.5-8.6
			c-5.9-1.8-12.5-2.7-19.9-2.7h-32.4V477h-39.5V139.9H1617c14.7,0,28.3,1.8,40.8,5.5s23.3,9.3,32.4,16.8
			c9.2,7.5,16.3,16.9,21.5,28.1c5.2,11.2,7.8,24.3,7.8,39.4c0,11.8-1.8,22.5-5.3,32.3s-8.5,18.5-15,26.2s-14.3,14.2-23.5,19.6
			c-9.2,5.4-19.5,9.6-30.9,12.6v0.9c5.6,2.5,10.5,5.4,14.7,8.6c4.2,3.2,8.1,7,11.9,11.4c3.8,4.4,7.5,9.4,11.2,14.9
			c3.7,5.6,7.8,12,12.3,19.4L1758,477z M1555.9,175.7v122.2h53.6c9.9,0,19-1.5,27.4-4.5s15.6-7.2,21.7-12.8
			c6.1-5.6,10.9-12.4,14.3-20.5s5.2-17.1,5.2-27.1c0-18-5.8-32.1-17.5-42.2c-11.7-10.1-28.6-15.2-50.7-15.2L1555.9,175.7
			L1555.9,175.7z"/>
	</g>
</g>
<g>
	<path d="M1220,325.4v31.3H985.6V591h-31.3V356.6H720v-31.3h234.4V91h31.3v234.4H1220z"/>
</g>
</svg>
